<?xml version="1.0" encoding="utf-8"?>
<!-- Generator: Adobe Illustrator 15.0.0, SVG Export Plug-In . SVG Version: 6.00 Build 0)  -->
<!DOCTYPE svg PUBLIC "-//W3C//DTD SVG 1.1//EN" "http://www.w3.org/Graphics/SVG/1.1/DTD/svg11.dtd">
<svg version="1.1" id="Layer_1" xmlns="http://www.w3.org/2000/svg" xmlns:xlink="http://www.w3.org/1999/xlink" x="0px" y="0px"
	 width="163.4px" height="55.4px" viewBox="0 0 163.4 55.4" style="enable-background:new 0 0 163.4 55.4;" xml:space="preserve">
<style type="text/css">
<![CDATA[
	.st0{fill:#FFFFFF;}
]]>
</style>
<g>
	<path class="st0" d="M79.4,33.4c0.6-1.8,1-3.8,1-6.1c0-4.4-1.2-7.8-3.5-10.2c-2.3-2.4-5.5-3.6-9.4-3.6c-4,0-7.2,1.2-9.5,3.6
		c-2.4,2.4-3.5,5.8-3.5,10.2c0,4.4,1.2,7.8,3.5,10.2s5.6,3.6,9.6,3.6c2.1,0,4.1-0.4,5.8-1.1c2.2,1.5,3.4,2.3,3.6,2.4
		c0.8,0.4,1.6,0.7,2.4,1l2-3.8c-1.6-0.5-3-1.3-4.3-2.2C78.2,36,78.9,34.7,79.4,33.4z M74.3,31.2c-0.3,1.2-0.9,2.1-1.6,2.9
		c-1.6-1.2-3.3-2.1-5.1-2.7l-1.5,3.1c1.1,0.4,2.2,1,3.3,1.7c-0.7,0.3-1.4,0.4-2.2,0.4c-2.1,0-3.8-0.7-5.2-2.3c-1.4-1.6-2-3.9-2-7
		c0-3.1,0.7-5.4,2-6.9c1.4-1.6,3.2-2.3,5.4-2.3c2.2,0,4,0.7,5.4,2.3c1.3,1.5,2,3.9,2,6.9C74.8,28.8,74.6,30.1,74.3,31.2z"/>
	<path class="st0" d="M103.5,16.9c-1.1-1.2-2.5-2-4-2.5c-1.2-0.3-2.8-0.5-5.1-0.5h-9.8v26.7h10.2c2,0,3.6-0.2,4.8-0.6
		c1.6-0.5,2.8-1.2,3.8-2.1c1.2-1.2,2.2-2.8,2.8-4.7c0.5-1.6,0.8-3.5,0.8-5.7c0-2.5-0.3-4.6-0.9-6.3
		C105.5,19.5,104.7,18.1,103.5,16.9z M100.9,32.2c-0.4,1.2-0.9,2-1.4,2.6c-0.5,0.5-1.3,0.9-2.2,1.1c-0.6,0.2-1.8,0.3-3.3,0.3h-4
		V18.4h2.4c2.2,0,3.7,0.1,4.4,0.3c1,0.2,1.8,0.6,2.5,1.2c0.6,0.6,1.2,1.5,1.6,2.6c0.4,1.1,0.5,2.7,0.5,4.8
		C101.4,29.4,101.2,31,100.9,32.2z"/>
	<path class="st0" d="M127.2,34.3l0.1-6c0-2.2-0.2-3.7-0.7-4.6c-0.5-0.9-1.2-1.5-2.4-2c-1.1-0.5-2.8-0.8-5.1-0.8
		c-2.5,0-4.4,0.4-5.7,1.3c-1.3,0.9-2.2,2.3-2.7,4.2l4.7,0.9c0.3-0.9,0.8-1.6,1.2-1.9c0.5-0.4,1.2-0.5,2.1-0.5c1.3,0,2.2,0.2,2.7,0.6
		c0.5,0.4,0.7,1.1,0.7,2.1v0.5c-0.9,0.4-2.6,0.8-5,1.3c-1.8,0.3-3.2,0.7-4.1,1.2c-1,0.4-1.7,1.1-2.2,2s-0.8,1.8-0.8,2.9
		c0,1.7,0.6,3,1.7,4.1s2.7,1.6,4.7,1.6c1.1,0,2.2-0.2,3.2-0.6c1-0.4,1.9-1.1,2.8-1.9c0.1,0.1,0.1,0.3,0.2,0.6
		c0.2,0.6,0.4,1.2,0.5,1.5h5.1c-0.4-0.9-0.8-1.8-0.9-2.6C127.3,37.2,127.2,35.9,127.2,34.3z M122.2,32.4c0,1.2-0.1,2-0.2,2.5
		c-0.2,0.7-0.6,1.2-1.2,1.7c-0.9,0.6-1.7,0.9-2.6,0.9c-0.8,0-1.5-0.3-2-0.8c-0.5-0.5-0.8-1.1-0.8-1.9c0-0.8,0.3-1.3,1-1.8
		c0.4-0.3,1.4-0.6,2.8-0.9c1.4-0.3,2.5-0.6,3.1-0.8V32.4L122.2,32.4z"/>
	<path class="st0" d="M139.1,36.8c-0.3,0-0.6-0.1-0.9-0.3c-0.2-0.2-0.4-0.4-0.5-0.6c-0.1-0.3-0.1-1.2-0.1-2.8v-7.8h3.5v-4.1h-3.5
		v-6.9l-5.1,3v3.9h-2.4v4.1h2.4v8.5c0,1.8,0.1,3,0.2,3.6c0.2,0.9,0.4,1.5,0.7,2c0.3,0.5,0.9,0.9,1.6,1.2c0.7,0.3,1.6,0.5,2.5,0.5
		c1.5,0,2.8-0.3,4.1-0.8l-0.4-4C140.3,36.6,139.6,36.8,139.1,36.8z"/>
	<path class="st0" d="M160.7,38c-0.2-0.8-0.3-2.1-0.3-3.7l0.1-6c0-2.2-0.2-3.7-0.7-4.6c-0.5-0.9-1.2-1.5-2.4-2
		c-1.1-0.5-2.8-0.8-5.1-0.8c-2.5,0-4.4,0.4-5.7,1.3c-1.3,0.9-2.2,2.3-2.7,4.2l4.7,0.9c0.3-0.9,0.8-1.6,1.2-1.9
		c0.5-0.4,1.2-0.5,2.1-0.5c1.3,0,2.2,0.2,2.7,0.6c0.5,0.4,0.7,1.1,0.7,2.1v0.5c-0.9,0.4-2.6,0.8-5,1.3c-1.8,0.3-3.2,0.7-4.1,1.2
		c-1,0.4-1.7,1.1-2.2,2c-0.5,0.9-0.8,1.8-0.8,2.9c0,1.7,0.6,3,1.7,4.1c1.1,1.1,2.7,1.6,4.7,1.6c1.1,0,2.2-0.2,3.2-0.6
		c1-0.4,1.9-1.1,2.8-1.9c0.1,0.1,0.1,0.3,0.2,0.6c0.2,0.6,0.4,1.2,0.5,1.5h5.1C161.1,39.7,160.8,38.8,160.7,38z M155.4,32.4
		c0,1.2-0.1,2-0.2,2.5c-0.2,0.7-0.6,1.2-1.2,1.7c-0.9,0.6-1.7,0.9-2.6,0.9c-0.8,0-1.5-0.3-2-0.8c-0.5-0.5-0.8-1.1-0.8-1.9
		c0-0.8,0.3-1.3,1-1.8c0.4-0.3,1.4-0.6,2.8-0.9c1.4-0.3,2.5-0.6,3.1-0.8V32.4z"/>
	<path class="st0" d="M20.3,6.2c-9.8,0-17.9,3.7-18.5,8.4H1.8v9.2c1.9,3.6,9.4,6.4,18.5,6.4s16.5-2.7,18.5-6.4v-9.2h-0.1
		C38.2,9.9,30.2,6.2,20.3,6.2z"/>
	<path class="st0" d="M20.3,33.7c-8.9,0-16.4-2.6-18.5-6.2v5.6c1.9,3.6,9.4,6.4,18.5,6.4s16.5-2.7,18.5-6.4v-5.6
		C36.7,31.1,29.2,33.7,20.3,33.7z"/>
	<path class="st0" d="M20.3,43.1c-8.9,0-16.4-2.6-18.5-6.2v4.2l0,0c0,0.1,0,0.1,0,0.1c0,4.4,8.3,8,18.5,8c10.2,0,18.5-3.6,18.5-8
		c0-0.1,0-0.1,0-0.1l0,0v-4.2C36.7,40.5,29.2,43.1,20.3,43.1z"/>
</g>
</svg>
