<?xml version="1.0" encoding="utf-8"?>
<!-- Generator: Adobe Illustrator 15.0.0, SVG Export Plug-In . SVG Version: 6.00 Build 0)  -->
<!DOCTYPE svg PUBLIC "-//W3C//DTD SVG 1.1//EN" "http://www.w3.org/Graphics/SVG/1.1/DTD/svg11.dtd">
<svg version="1.1" id="Layer_1" xmlns="http://www.w3.org/2000/svg" xmlns:xlink="http://www.w3.org/1999/xlink" x="0px" y="0px"
	 width="70.936px" height="26.883px" viewBox="7.927 4.635 70.936 26.883" enable-background="new 7.927 4.635 70.936 26.883"
	 xml:space="preserve">
<g>
	<path fill="#0099CC" d="M8.904,29.784l9.217-23.668h4.937l9.21,23.668h-5.061l-2.459-6.316H14.95l-2.46,6.316H8.904z
		 M16.177,20.317h7.345l-3.671-9.436L16.177,20.317z"/>
	<path fill="#993366" d="M35.611,29.784V6.115H45.8c2.729,0,4.854,0.437,6.372,1.312c1.52,0.875,2.729,2.162,3.631,3.862
		c0.9,1.701,1.352,3.755,1.352,6.166c0,2.355-0.43,4.462-1.288,6.316c-0.858,1.855-2.108,3.321-3.75,4.397
		c-1.643,1.078-3.892,1.615-6.749,1.615H35.611z M40.537,26.426h3.679c1.918,0,3.387-0.298,4.405-0.896
		c1.018-0.597,1.823-1.606,2.414-3.03c0.592-1.424,0.889-3.01,0.889-4.757c0-1.674-0.289-3.156-0.864-4.446
		c-0.575-1.29-1.372-2.268-2.391-2.934s-2.737-1-5.157-1h-2.975V26.426z"/>
	<path fill="#000666" d="M61.584,29.784V6.115h15.161v3.263H66.51v6.589h8.46v3.262h-8.46v7.196h10.986v3.358H61.584z"/>
</g>
</svg>
